<?xml version="1.0" encoding="iso-8859-1"?>
<!-- Generator: Adobe Illustrator 19.0.0, SVG Export Plug-In . SVG Version: 6.00 Build 0)  -->
<svg version="1.1" id="Capa_1" xmlns="http://www.w3.org/2000/svg" xmlns:xlink="http://www.w3.org/1999/xlink" x="0px" y="0px"
	 viewBox="0 0 464.001 464.001" style="enable-background:new 0 0 464.001 464.001;" xml:space="preserve">
<g>
	<path d="M320.001,448H307.21c-28.328-58.522-27.716-192.428-27.305-281.769c0.035-7.724,0.069-15.134,0.086-22.231h0.01
		c4.418,0,8-3.582,8-8s-3.582-8-8-8v-23.333c0-4.348-3.471-7.878-7.792-7.99V48.24c4.321-0.111,7.792-3.641,7.792-7.99
		c0-4.418-3.582-8-8-8h-16.167c-8.73,0-15.833-7.103-15.833-15.833V8c0-4.418-3.582-8-8-8s-8,3.582-8,8v8.417
		c0,8.73-7.103,15.833-15.833,15.833h-16.167c-4.418,0-8,3.582-8,8c0,4.348,3.471,7.878,7.792,7.99v48.477
		c-4.006,0.436-7.125,3.828-7.125,7.95V128h-0.334c-4.418,0-8,3.582-8,8s3.582,8,8,8h0.343c0.011,5.999,0.033,12.212,0.056,18.637
		c0.318,90.481,0.791,226.11-27.939,285.363h-12.792c-4.418,0-8,3.582-8,8s3.582,8,8,8h17.651c0.019,0,0.038,0,0.058,0h140.586
		c0.007,0,0.015,0.001,0.022,0.001c0.008,0,0.016-0.001,0.024-0.001h17.659c4.418,0,8-3.582,8-8S324.419,448,320.001,448z
		 M263.795,208.25c0.017,15.581,0.127,31.613,0.434,47.751c-0.007,0-0.013-0.001-0.02-0.001h-63.953
		c0.343-16.115,0.489-32.143,0.535-47.75H263.795z M199.846,272h64.363c0.132,0,0.261-0.013,0.392-0.02
		c0.451,16.28,1.139,32.545,2.165,48.445c-0.804-0.271-1.662-0.425-2.557-0.425h-64.416c-0.771,0-1.515,0.115-2.221,0.319
		C198.634,304.471,199.357,288.25,199.846,272z M196.457,335.264c1.016,0.468,2.144,0.736,3.336,0.736h64.416
		c1.303,0,2.529-0.318,3.616-0.87c1.367,17.135,3.183,33.694,5.586,49.208c-0.026,0-0.051-0.004-0.077-0.004h-82.58
		C193.191,368.867,195.046,352.356,196.457,335.264z M256.209,48.25v48.417h-48.416V48.25H256.209z M200.668,112.667h63.333V128
		h-63.333V112.667z M263.991,144c-0.016,7.069-0.05,14.456-0.086,22.157c-0.039,8.452-0.079,17.176-0.099,26.093h-62.999
		c-0.007-10.162-0.041-20.086-0.075-29.669c-0.023-6.406-0.044-12.6-0.055-18.581H263.991z M188.027,399.878
		c0.828,0.29,1.714,0.455,2.64,0.455h82.666c0.968,0,1.892-0.181,2.751-0.496c3.478,18.18,7.92,34.531,13.592,48.162H174.333
		C180.026,434.366,184.504,418.035,188.027,399.878z"/>
	<path d="M232.001,311.5c4.418,0,8-3.582,8-8V288c0-4.418-3.582-8-8-8s-8,3.582-8,8v15.5
		C224.001,307.918,227.583,311.5,232.001,311.5z"/>
	<path d="M226.341,229.78c1.49,1.49,3.55,2.35,5.66,2.35c2.109,0,4.17-0.86,5.66-2.35c1.489-1.49,2.34-3.55,2.34-5.65
		c0-2.11-0.851-4.17-2.34-5.66c-1.49-1.49-3.551-2.34-5.66-2.34c-2.101,0-4.17,0.85-5.66,2.34c-1.49,1.49-2.34,3.55-2.34,5.66
		C224.001,226.23,224.85,228.29,226.341,229.78z"/>
	<path d="M232.001,168c2.109,0,4.17-0.85,5.66-2.34c1.489-1.49,2.34-3.55,2.34-5.66c0-2.11-0.851-4.17-2.34-5.66
		c-1.49-1.49-3.551-2.34-5.66-2.34c-2.11,0-4.17,0.85-5.66,2.34c-1.49,1.49-2.34,3.55-2.34,5.66c0,2.11,0.85,4.17,2.34,5.66
		C227.831,167.15,229.89,168,232.001,168z"/>
</g>
<g>
</g>
<g>
</g>
<g>
</g>
<g>
</g>
<g>
</g>
<g>
</g>
<g>
</g>
<g>
</g>
<g>
</g>
<g>
</g>
<g>
</g>
<g>
</g>
<g>
</g>
<g>
</g>
<g>
</g>
</svg>
